<?xml version="1.0" encoding="UTF-8"?>
<svg width="587px" height="410px" viewBox="0 0 587 410" version="1.1" xmlns="http://www.w3.org/2000/svg" xmlns:xlink="http://www.w3.org/1999/xlink">
    <title>file-uploads</title>
    <defs>
        <filter x="-14.9%" y="-23.6%" width="129.7%" height="147.2%" filterUnits="objectBoundingBox" id="filter-1">
            <feOffset dx="0" dy="9" in="SourceAlpha" result="shadowOffsetOuter1"></feOffset>
            <feGaussianBlur stdDeviation="14" in="shadowOffsetOuter1" result="shadowBlurOuter1"></feGaussianBlur>
            <feColorMatrix values="0 0 0 0 0   0 0 0 0 0   0 0 0 0 0  0 0 0 0.1 0" type="matrix" in="shadowBlurOuter1" result="shadowMatrixOuter1"></feColorMatrix>
            <feMerge>
                <feMergeNode in="shadowMatrixOuter1"></feMergeNode>
                <feMergeNode in="SourceGraphic"></feMergeNode>
            </feMerge>
        </filter>
        <radialGradient cx="170.277901%" cy="15.2806003%" fx="170.277901%" fy="15.2806003%" r="646.469833%" gradientTransform="translate(1.702779,0.152806),scale(0.364983,1.000000),rotate(30.000468),translate(-1.702779,-0.152806)" id="radialGradient-2">
            <stop stop-color="#4387FD" offset="0%"></stop>
            <stop stop-color="#3078F0" offset="65%"></stop>
            <stop stop-color="#2B72EA" offset="90.99%"></stop>
            <stop stop-color="#286EE6" offset="100%"></stop>
        </radialGradient>
        <radialGradient cx="186.108971%" cy="108.164821%" fx="186.108971%" fy="108.164821%" r="345.035961%" gradientTransform="translate(1.861090,1.081648),scale(0.837780,1.000000),rotate(30.000468),translate(-1.861090,-1.081648)" id="radialGradient-3">
            <stop stop-color="#FFD24D" offset="0%"></stop>
            <stop stop-color="#F6C338" offset="100%"></stop>
        </radialGradient>
    </defs>
    <g id="Spot-Graphics-Outlined" stroke="none" stroke-width="1" fill="none" fill-rule="evenodd">
        <g id="Features_Forms" transform="translate(-2451.000000, -1470.000000)">
            <g id="file-uploads" transform="translate(2504.000000, 1523.000000)">
                <path d="M465.230769,258.461538 C465.230769,132.541932 363.358003,30.4615385 237.694511,30.4615385 C112.026613,30.4615385 10.1538462,132.541932 10.1538462,258.461538 L465.230769,258.461538 Z" id="Fill-13" fill="#E59E6E" transform="translate(237.692308, 144.461538) scale(1, -1) translate(-237.692308, -144.461538) "></path>
                <g id="Group-3" filter="url(#filter-1)" transform="translate(0.000000, 0.400077)">
                    <g id="Group" transform="translate(402.461538, 57.753769)">
                        <circle id="Oval" fill="#FFFFFF" cx="38.6498121" cy="38.6498121" r="38.6498121"></circle>
                        <g id="Group-11" transform="translate(22.006596, 23.286843)" fill="#15232B" fill-rule="nonzero">
                            <path d="M30.7259374,-0.800154619 L2.56049478,-0.800154619 C0.735602839,-0.800154619 -0.800154619,0.453975055 -0.800154619,2.09095028 L-0.800154619,28.2278288 C-0.800154619,29.864804 0.735602839,31.1189337 2.56049478,31.1189337 L30.7259374,31.1189337 C32.5508293,31.1189337 34.0865868,29.864804 34.0865868,28.2278288 L34.0865868,2.09095028 C34.0865868,0.453975055 32.5508293,-0.800154619 30.7259374,-0.800154619 Z M2.56049478,0.800154619 L30.7259374,0.800154619 C31.7303922,0.800154619 32.4862775,1.41742544 32.4862775,2.09095028 L32.4862775,28.2278288 C32.4862775,28.9013536 31.7303922,29.5186244 30.7259374,29.5186244 L2.56049478,29.5186244 C1.55603999,29.5186244 0.800154619,28.9013536 0.800154619,28.2278288 L0.800154619,2.09095028 C0.800154619,1.41742544 1.55603999,0.800154619 2.56049478,0.800154619 Z" id="Stroke-603"></path>
                            <path d="M28.1654426,4.32096297 L5.12098956,4.32096297 C4.67907637,4.32096297 4.32083494,4.67920439 4.32083494,5.12111759 L4.32083494,24.3248284 C4.32083494,24.7667416 4.67907637,25.1249831 5.12098956,25.1249831 L28.1654426,25.1249831 C28.6073558,25.1249831 28.9655972,24.7667416 28.9655972,24.3248284 L28.9655972,5.12111759 C28.9655972,4.67920439 28.6073558,4.32096297 28.1654426,4.32096297 Z M27.365,5.921 L27.365,23.524 L5.921,23.524 L5.921,5.921 L27.365,5.921 Z" id="Stroke-604"></path>
                            <path d="M12.1877781,9.08960893 C12.4830685,8.73526048 13.0081606,8.7080029 13.3388051,9.00783621 L13.4171697,9.08960893 L21.0986541,18.3073901 C21.38156,18.6468773 21.3356919,19.1514265 20.9962048,19.4343325 C20.6850082,19.6936629 20.2351137,19.6767318 19.9443827,19.4106175 L19.8692624,19.3318831 L12.802,10.852 L5.73568537,19.3318831 C5.47635493,19.6430797 5.03078253,19.7075547 4.69682985,19.4982298 L4.60874306,19.4343325 C4.29754653,19.175002 4.23307153,18.7294296 4.44239639,18.3954769 L4.50629376,18.3073901 L12.1877781,9.08960893 Z" id="Stroke-605"></path>
                            <path d="M19.9181635,12.1086544 C20.2142892,11.8125287 20.682213,11.7983991 20.9948546,12.0584823 L21.0760247,12.1362069 L28.7575091,20.5858397 C29.054772,20.912829 29.0306741,21.4188854 28.7036848,21.7161484 C28.4039447,21.9886395 27.9537383,21.9910981 27.6518173,21.7377506 L27.5733761,21.6623242 L20.456,13.833 L18.7453077,15.5446892 C18.4612351,15.8287618 18.016708,15.8545866 17.7034619,15.6221636 L17.6137182,15.5446892 C17.3296456,15.2606167 17.3038209,14.8160895 17.5362439,14.5028434 L17.6137182,14.4130997 L19.9181635,12.1086544 Z" id="Stroke-606"></path>
                        </g>
                    </g>
                    <g id="Group-Copy-4" transform="translate(222.390973, 224.354078)">
                        <circle id="Oval" fill="#FFFFFF" cx="38.8019767" cy="38.8019767" r="38.8019767"></circle>
                        <g id="Group-49" transform="translate(24.721145, 19.100532)" fill="#15232B" fill-rule="nonzero">
                            <path d="M12.8339761,12.7060773 C14.8076782,12.7060773 15.7178,14.1341376 15.6770603,16.3597578 C15.649924,17.8422195 15.2265867,19.7110905 14.5118809,21.84202 L14.4622513,21.9836424 C14.7628677,22.3415051 15.0815446,22.6892817 15.4165385,23.0242755 C16.2156617,23.8233987 17.0941924,24.612427 17.9938508,25.3412376 L18.4498769,25.702616 L19.0120262,25.6195035 C19.1048073,25.6069804 19.1971167,25.5951242 19.2889294,25.5839382 L19.8336477,25.5248935 C19.9233745,25.5164025 20.0125551,25.5085887 20.1011644,25.5014557 L20.6257678,25.4668532 C23.9885537,25.2953921 26.4069926,26.1698093 26.4069926,28.2958615 C26.4069926,30.1839924 25.0020363,30.8131851 23.0777766,30.237222 C21.7202202,29.8308827 19.9673429,28.8359723 18.1140367,27.459854 L18.037389,27.4003473 C16.7026218,27.658803 15.4134868,28.0480589 14.3329313,28.5239512 L14.0262438,28.6573028 L13.2268967,28.9863052 L11.3663047,29.7015408 L10.6282897,29.9813853 L10.4440933,30.2654543 L10.0785169,30.8167422 C10.0179087,30.9067143 9.95746387,30.9957195 9.89718652,31.0837392 L9.53756546,31.5998842 L9.18216298,32.0914906 L8.83117774,32.5576706 C8.54058575,32.9353129 8.25480201,33.2855443 7.97434389,33.6060526 L7.64038356,33.9762474 C6.14936345,35.5765902 4.81967327,36.2832344 3.73278122,35.7320721 C1.88463815,34.7949422 1.50879996,33.3974003 2.73816842,32.129976 C3.35193651,31.4972084 4.35464121,30.8866663 5.80070676,30.2168925 L6.44775235,29.9259826 C6.56017027,29.8768141 6.67488989,29.827284 6.79193107,29.7773626 L7.76301669,29.3752896 L8.79309613,28.9687908 L9.5636152,28.6733785 C10.421528,27.3054469 11.1682158,25.9337146 11.5962032,24.9511692 C11.9227836,24.201427 12.2502052,23.3952366 12.5531548,22.5806283 L12.6597107,22.2878961 C11.1623866,20.3006012 10.2128624,18.1456637 10.0434912,16.3702883 C9.83743353,14.2103606 10.8407451,12.7060773 12.8339761,12.7060773 Z M7.959,31.023 L7.76269769,31.1047819 C5.77364934,31.9339436 4.47390377,32.638985 3.88687207,33.2441886 L3.77017545,33.3719844 C3.51920321,33.6713281 3.58387415,33.8331604 4.18634111,34.1631085 L4.45653693,34.3047784 C4.64151157,34.3985789 5.0023372,34.2194498 5.47927407,33.8183566 L5.72714186,33.599549 L5.99270209,33.345163 C6.08398652,33.2545953 6.17794312,33.1583338 6.27429532,33.0566144 L6.5702621,32.735319 C6.62069551,32.6791195 6.67165867,32.6216145 6.72311701,32.5628336 L7.03753269,32.1950723 L7.36217334,31.7981034 L7.69537952,31.3733425 L7.959,31.023 Z M24.8066833,28.2958615 C24.8066833,27.4831924 23.2164837,26.9792737 20.8319367,27.0688434 L20.5734462,27.0807241 L20.381,27.092 L20.6300118,27.2547447 C21.5264149,27.8260765 22.3555594,28.2658624 23.0582158,28.5385649 L23.3156671,28.6329269 L23.5366609,28.7041157 C24.5646782,29.0118185 24.8066833,28.9034394 24.8066833,28.2958615 Z M13.841,23.695 L13.8146534,23.7654621 C13.5705495,24.3941986 13.3168077,25.0084139 13.0633651,25.5902509 C12.8682367,26.0382139 12.6161163,26.5531638 12.3222929,27.106543 L12.1411168,27.4429536 L11.965,27.76 L12.7149412,27.4675238 L13.1981501,27.270091 L13.6879164,27.059388 C14.3718957,26.7581535 15.1240936,26.4905172 15.9138626,26.2641397 L16.429,26.123 C16.0534598,25.8061157 15.6853401,25.4821946 15.327141,25.1535505 L14.7975955,24.6573313 L14.284949,24.155865 L14.0771969,23.9446528 L13.841,23.695 Z M12.8339761,14.3063866 C11.9116777,14.3063866 11.5114205,14.9064995 11.6365674,16.2183084 C11.7426546,17.3303303 12.2530903,18.6926605 13.0750667,20.0536289 L13.292,20.4 L13.3595198,20.1777822 C13.7250229,18.9381076 13.9629587,17.8265034 14.0456317,16.8969296 L14.0674009,16.5938875 L14.0770191,16.3304692 C14.1033712,14.8908503 13.7308847,14.3063866 12.8339761,14.3063866 Z" id="Stroke-43"></path>
                            <path d="M28.2958615,-0.739040448 L10.8172084,-0.739040448 C10.6049942,-0.739040448 10.4014717,-0.654738685 10.2514136,-0.504680586 L-0.504680586,10.2514136 C-0.654738685,10.4014717 -0.739040448,10.6049942 -0.739040448,10.8172084 L-0.739040448,39.0519557 C-0.739040448,39.4938689 -0.380799022,39.8521103 0.0611141717,39.8521103 L28.2958615,39.8521103 C28.7377747,39.8521103 29.0960161,39.4938689 29.0960161,39.0519557 L29.0960161,0.0611141717 C29.0960161,-0.380799022 28.7377747,-0.739040448 28.2958615,-0.739040448 Z M27.495,0.861 L27.495,38.251 L0.861,38.251 L0.861,11.148 L11.148,0.861 L27.495,0.861 Z" id="Stroke-45"></path>
                            <path d="M10.8172084,-0.739040448 C11.2251283,-0.739040448 11.5617538,-0.433793316 11.6111287,-0.0392555236 L11.617363,0.0611141717 L11.617363,10.8172084 C11.617363,11.2251283 11.3121159,11.5617538 10.9175781,11.6111287 L10.8172084,11.617363 L0.0611141717,11.617363 C-0.380799022,11.617363 -0.739040448,11.2591216 -0.739040448,10.8172084 C-0.739040448,10.4092885 -0.433793316,10.0726629 -0.0392555236,10.0232881 L0.0611141717,10.0170538 L10.017,10.017 L10.0170538,0.0611141717 C10.0170538,-0.346805699 10.3223009,-0.683431283 10.7168387,-0.732806107 L10.8172084,-0.739040448 Z" id="Stroke-47"></path>
                        </g>
                    </g>
                    <g id="Group-Copy-5" transform="translate(103.384615, 192.523000)">
                        <circle id="Oval" fill="#FFFFFF" cx="31.179582" cy="31.179582" r="31.179582"></circle>
                        <g id="Group-161" transform="translate(19.042347, 15.067259)" fill="#15232B" fill-rule="nonzero">
                            <path d="M14.6343903,1.40973653 L13.553999,1.40973653 C13.1963229,1.40973653 12.8820897,1.64711463 12.7843187,1.99116847 L11.3041827,7.19973458 C10.9747569,8.07056571 11.2028311,9.12192146 11.9071812,9.82784732 C12.9009393,10.8216061 15.28745,10.8216061 16.2805763,9.82847984 C16.9855582,9.12192146 17.2136324,8.07056571 16.8637344,7.13750421 L15.4040706,1.99116847 C15.3062996,1.64711463 14.9920664,1.40973653 14.6343903,1.40973653 Z M12.8230712,7.6994103 L14.093,3.235 L15.3448459,7.63717994 C15.4949048,8.04497462 15.4102962,8.43499562 15.1483549,8.69752285 C14.7808201,9.06505698 13.4075692,9.06505698 13.0394026,8.69689033 C12.7780932,8.43499562 12.6934846,8.04497462 12.8230712,7.6994103 Z" id="Stroke-129"></path>
                            <path d="M13.0138034,11.1332576 C13.4557166,11.1332576 13.813958,11.491499 13.813958,11.9334122 C13.813958,12.3413321 13.5087109,12.6779577 13.1141731,12.7273325 L13.0138034,12.7335668 L11.9334122,12.7335668 C11.491499,12.7335668 11.1332576,12.3753254 11.1332576,11.9334122 C11.1332576,11.5254923 11.4385047,11.1888667 11.8330425,11.1394919 L11.9334122,11.1332576 L13.0138034,11.1332576 Z" id="Stroke-131"></path>
                            <path d="M13.0138034,13.29404 C13.4557166,13.29404 13.813958,13.6522815 13.813958,14.0941947 C13.813958,14.5021145 13.5087109,14.8387401 13.1141731,14.8881149 L13.0138034,14.8943493 L11.9334122,14.8943493 C11.491499,14.8943493 11.1332576,14.5361078 11.1332576,14.0941947 C11.1332576,13.6862748 11.4385047,13.3496492 11.8330425,13.3002744 L11.9334122,13.29404 L13.0138034,13.29404 Z" id="Stroke-133"></path>
                            <path d="M13.0138034,15.4548225 C13.4557166,15.4548225 13.813958,15.8130639 13.813958,16.2549771 C13.813958,16.662897 13.5087109,16.9995226 13.1141731,17.0488974 L13.0138034,17.0551317 L11.9334122,17.0551317 C11.491499,17.0551317 11.1332576,16.6968903 11.1332576,16.2549771 C11.1332576,15.8470572 11.4385047,15.5104317 11.8330425,15.4610568 L11.9334122,15.4548225 L13.0138034,15.4548225 Z" id="Stroke-135"></path>
                            <path d="M13.0138034,17.6156049 C13.4557166,17.6156049 13.813958,17.9738464 13.813958,18.4157596 C13.813958,18.8236794 13.5087109,19.160305 13.1141731,19.2096798 L13.0138034,19.2159142 L11.9334122,19.2159142 C11.491499,19.2159142 11.1332576,18.8576728 11.1332576,18.4157596 C11.1332576,18.0078397 11.4385047,17.6712141 11.8330425,17.6218393 L11.9334122,17.6156049 L13.0138034,17.6156049 Z" id="Stroke-137"></path>
                            <path d="M13.0138034,19.7763874 C13.4557166,19.7763874 13.813958,20.1346288 13.813958,20.576542 C13.813958,20.9844619 13.5087109,21.3210875 13.1141731,21.3704623 L13.0138034,21.3766966 L11.9334122,21.3766966 C11.491499,21.3766966 11.1332576,21.0184552 11.1332576,20.576542 C11.1332576,20.1686222 11.4385047,19.8319966 11.8330425,19.7826217 L11.9334122,19.7763874 L13.0138034,19.7763874 Z" id="Stroke-139"></path>
                            <path d="M13.0138034,21.9371699 C13.4557166,21.9371699 13.813958,22.2954113 13.813958,22.7373245 C13.813958,23.1452443 13.5087109,23.4818699 13.1141731,23.5312448 L13.0138034,23.5374791 L11.9334122,23.5374791 C11.491499,23.5374791 11.1332576,23.1792377 11.1332576,22.7373245 C11.1332576,22.3294046 11.4385047,21.992779 11.8330425,21.9434042 L11.9334122,21.9371699 L13.0138034,21.9371699 Z" id="Stroke-141"></path>
                            <path d="M13.0138034,24.0979523 C13.4557166,24.0979523 13.813958,24.4561937 13.813958,24.8981069 C13.813958,25.3060268 13.5087109,25.6426524 13.1141731,25.6920272 L13.0138034,25.6982616 L11.9334122,25.6982616 C11.491499,25.6982616 11.1332576,25.3400201 11.1332576,24.8981069 C11.1332576,24.4901871 11.4385047,24.1535615 11.8330425,24.1041867 L11.9334122,24.0979523 L13.0138034,24.0979523 Z" id="Stroke-143"></path>
                            <path d="M13.0138034,26.2587348 C13.4557166,26.2587348 13.813958,26.6169762 13.813958,27.0588894 C13.813958,27.4668093 13.5087109,27.8034348 13.1141731,27.8528097 L13.0138034,27.859044 L11.9334122,27.859044 C11.491499,27.859044 11.1332576,27.5008026 11.1332576,27.0588894 C11.1332576,26.6509695 11.4385047,26.3143439 11.8330425,26.2649691 L11.9334122,26.2587348 L13.0138034,26.2587348 Z" id="Stroke-145"></path>
                            <path d="M16.2549771,12.2136488 C16.6968903,12.2136488 17.0551317,12.5718902 17.0551317,13.0138034 C17.0551317,13.4217233 16.7498846,13.7583489 16.3553468,13.8077237 L16.2549771,13.813958 L15.1745859,13.813958 C14.7326727,13.813958 14.3744313,13.4557166 14.3744313,13.0138034 C14.3744313,12.6058836 14.6796784,12.269258 15.0742162,12.2198831 L15.1745859,12.2136488 L16.2549771,12.2136488 Z" id="Stroke-147"></path>
                            <path d="M16.2549771,14.3744313 C16.6968903,14.3744313 17.0551317,14.7326727 17.0551317,15.1745859 C17.0551317,15.5825058 16.7498846,15.9191313 16.3553468,15.9685062 L16.2549771,15.9747405 L15.1745859,15.9747405 C14.7326727,15.9747405 14.3744313,15.6164991 14.3744313,15.1745859 C14.3744313,14.766666 14.6796784,14.4300404 15.0742162,14.3806656 L15.1745859,14.3744313 L16.2549771,14.3744313 Z" id="Stroke-149"></path>
                            <path d="M16.2549771,16.5352137 C16.6968903,16.5352137 17.0551317,16.8934551 17.0551317,17.3353683 C17.0551317,17.7432882 16.7498846,18.0799138 16.3553468,18.1292886 L16.2549771,18.135523 L15.1745859,18.135523 C14.7326727,18.135523 14.3744313,17.7772815 14.3744313,17.3353683 C14.3744313,16.9274485 14.6796784,16.5908229 15.0742162,16.5414481 L15.1745859,16.5352137 L16.2549771,16.5352137 Z" id="Stroke-151"></path>
                            <path d="M16.2549771,18.6959962 C16.6968903,18.6959962 17.0551317,19.0542376 17.0551317,19.4961508 C17.0551317,19.9040707 16.7498846,20.2406962 16.3553468,20.2900711 L16.2549771,20.2963054 L15.1745859,20.2963054 C14.7326727,20.2963054 14.3744313,19.938064 14.3744313,19.4961508 C14.3744313,19.0882309 14.6796784,18.7516053 15.0742162,18.7022305 L15.1745859,18.6959962 L16.2549771,18.6959962 Z" id="Stroke-153"></path>
                            <path d="M16.2549771,20.8567786 C16.6968903,20.8567786 17.0551317,21.2150201 17.0551317,21.6569333 C17.0551317,22.0648531 16.7498846,22.4014787 16.3553468,22.4508535 L16.2549771,22.4570879 L15.1745859,22.4570879 C14.7326727,22.4570879 14.3744313,22.0988464 14.3744313,21.6569333 C14.3744313,21.2490134 14.6796784,20.9123878 15.0742162,20.863013 L15.1745859,20.8567786 L16.2549771,20.8567786 Z" id="Stroke-155"></path>
                            <path d="M16.2549771,23.0175611 C16.6968903,23.0175611 17.0551317,23.3758025 17.0551317,23.8177157 C17.0551317,24.2256356 16.7498846,24.5622612 16.3553468,24.611636 L16.2549771,24.6178703 L15.1745859,24.6178703 C14.7326727,24.6178703 14.3744313,24.2596289 14.3744313,23.8177157 C14.3744313,23.4097958 14.6796784,23.0731703 15.0742162,23.0237954 L15.1745859,23.0175611 L16.2549771,23.0175611 Z" id="Stroke-157"></path>
                            <path d="M16.2549771,25.1783435 C16.6968903,25.1783435 17.0551317,25.536585 17.0551317,25.9784982 C17.0551317,26.386418 16.7498846,26.7230436 16.3553468,26.7724184 L16.2549771,26.7786528 L15.1745859,26.7786528 C14.7326727,26.7786528 14.3744313,26.4204114 14.3744313,25.9784982 C14.3744313,25.5705783 14.6796784,25.2339527 15.0742162,25.1845779 L15.1745859,25.1783435 L16.2549771,25.1783435 Z" id="Stroke-159"></path>
                            <path d="M22.7373245,-0.751045927 L8.69223852,-0.751045927 C8.48002432,-0.751045927 8.27650186,-0.666744165 8.12644376,-0.516686065 L-0.516686065,8.12644376 C-0.666744165,8.27650186 -0.751045927,8.48002432 -0.751045927,8.69223852 L-0.751045927,31.3804543 C-0.751045927,31.8223675 -0.392804502,32.1806089 0.0491086922,32.1806089 L22.7373245,32.1806089 C23.1792377,32.1806089 23.5374791,31.8223675 23.5374791,31.3804543 L23.5374791,0.0491086922 C23.5374791,-0.392804502 23.1792377,-0.751045927 22.7373245,-0.751045927 Z M21.937,0.849 L21.937,30.58 L0.849,30.58 L0.849,9.023 L9.023,0.849 L21.937,0.849 Z" id="Stroke-125"></path>
                            <path d="M8.69223852,-0.751045927 C9.10015839,-0.751045927 9.43678397,-0.445798795 9.48615879,-0.0512610031 L9.49239313,0.0491086922 L9.49239313,8.69223852 C9.49239313,9.10015839 9.187146,9.43678397 8.79260821,9.48615879 L8.69223852,9.49239313 L0.0491086922,9.49239313 C-0.392804502,9.49239313 -0.751045927,9.13415171 -0.751045927,8.69223852 C-0.751045927,8.28431864 -0.445798795,7.94769306 -0.0512610031,7.89831824 L0.0491086922,7.8920839 L7.892,7.892 L7.8920839,0.0491086922 C7.8920839,-0.358811179 8.19733103,-0.695436762 8.59186882,-0.744811587 L8.69223852,-0.751045927 Z" id="Stroke-126"></path>
                            <path d="M11.1904873,-0.248061273 C11.3546097,-0.658367373 11.8202761,-0.857938661 12.2305822,-0.693816221 C12.6066961,-0.543370651 12.8057342,-0.139544444 12.7098793,0.242755336 L12.6763371,0.346278657 L11.743,2.678 L13.1597347,5.03938868 C13.3681503,5.38674799 13.2822685,5.8286938 12.9746292,6.07506621 L12.885284,6.13719176 C12.5379247,6.34560735 12.0959788,6.25972551 11.8496064,5.95208623 L11.7874809,5.86274099 L10.166894,3.16176292 C10.059681,2.98307447 10.0272199,2.7711795 10.0731222,2.57115004 L10.1100961,2.4529168 L11.1904873,-0.248061273 Z" id="Stroke-127"></path>
                            <path d="M15.6270393,-0.666571356 C15.9893602,-0.847731812 16.4234174,-0.728207248 16.6454693,-0.402578218 L16.7005594,-0.308731332 L18.0510484,2.39224674 C18.1559161,2.60198211 18.1627079,2.84518029 18.0738713,3.05811346 L18.0214953,3.16176292 L16.4009084,5.86274099 C16.173546,6.24167842 15.6820428,6.36455422 15.3031053,6.13719176 C14.955746,5.92877617 14.8235496,5.498409 14.9790561,5.13625015 L15.0286546,5.03938868 L16.423,2.715 L15.2691993,0.406948716 C15.0880388,0.0446278046 15.2075634,-0.389429412 15.5331924,-0.611481269 L15.6270393,-0.666571356 Z" id="Stroke-128"></path>
                        </g>
                    </g>
                    <g id="Group-Copy" transform="translate(110.769231, 0.523000)">
                        <circle id="Oval" fill="#FFFFFF" cx="31.0910808" cy="31.0910808" r="30.9844804"></circle>
                        <g id="Group-86" transform="translate(16.217179, 16.217179)" fill="#15232B" fill-rule="nonzero">
                            <path d="M9.42013807,21.5106987 C7.88251408,21.5106987 6.63679649,22.7564163 6.63679649,24.2940403 C6.63679649,25.8316643 7.88251408,27.0773819 9.42013807,27.0773819 C10.9577621,27.0773819 12.2034797,25.8316643 12.2034797,24.2940403 C12.2034797,22.7564163 10.9577621,21.5106987 9.42013807,21.5106987 Z M9.42013807,23.111008 C10.0739357,23.111008 10.6031704,23.6402427 10.6031704,24.2940403 C10.6031704,24.9478379 10.0739357,25.4770726 9.42013807,25.4770726 C8.76634047,25.4770726 8.23710573,24.9478379 8.23710573,24.2940403 C8.23710573,23.6402427 8.76634047,23.111008 9.42013807,23.111008 Z" id="Stroke-76"></path>
                            <path d="M6.94115437,23.4938857 C7.38306756,23.4938857 7.74130899,23.8521271 7.74130899,24.2940403 C7.74130899,24.7019602 7.43606186,25.0385857 7.04152407,25.0879606 L6.94115437,25.0941949 L2.4789837,25.0941949 C2.03707051,25.0941949 1.67882908,24.7359535 1.67882908,24.2940403 C1.67882908,23.8861204 1.98407622,23.5494948 2.37861401,23.50012 L2.4789837,23.4938857 L6.94115437,23.4938857 Z" id="Stroke-78"></path>
                            <path d="M10.6031704,5.45376415 L10.6031704,16.3612924 C10.6031704,16.9713978 11.2585865,17.3570468 11.7919145,17.0607534 L20.7162558,12.102786 C21.2399108,11.8118666 21.2699436,11.0698437 20.7715123,10.7375561 L11.847171,4.78799526 C11.3154244,4.43349757 10.6031704,4.81468435 10.6031704,5.45376415 Z M12.203,6.948 L18.791,11.341 L12.203,15 L12.203,6.948 Z" id="Stroke-82"></path>
                            <path d="M26.2772273,-0.304357879 L3.47057718,-0.304357879 C1.38559359,-0.304357879 -0.304357879,1.38559359 -0.304357879,3.47057718 L-0.304357879,26.2772273 C-0.304357879,28.3622109 1.38559359,30.0521623 3.47057718,30.0521623 L26.2772273,30.0521623 C28.3622109,30.0521623 30.0521623,28.3622109 30.0521623,26.2772273 L30.0521623,3.47057718 C30.0521623,1.38559359 28.3622109,-0.304357879 26.2772273,-0.304357879 Z M3.47057718,1.29595136 L26.2772273,1.29595136 C27.4783845,1.29595136 28.4518531,2.26941998 28.4518531,3.47057718 L28.4518531,26.2772273 C28.4518531,27.4783845 27.4783845,28.4518531 26.2772273,28.4518531 L3.47057718,28.4518531 C2.26941998,28.4518531 1.29595136,27.4783845 1.29595136,26.2772273 L1.29595136,3.47057718 C1.29595136,2.26941998 2.26941998,1.29595136 3.47057718,1.29595136 Z" id="Stroke-84"></path>
                            <path d="M26.2772273,23.4938857 C26.7191405,23.4938857 27.0773819,23.8521271 27.0773819,24.2940403 C27.0773819,24.7019602 26.7721347,25.0385857 26.377597,25.0879606 L26.2772273,25.0941949 L11.403325,25.0941949 C10.9614118,25.0941949 10.6031704,24.7359535 10.6031704,24.2940403 C10.6031704,23.8861204 10.9084175,23.5494948 11.3029553,23.50012 L11.403325,23.4938857 L26.2772273,23.4938857 Z" id="Stroke-75"></path>
                        </g>
                    </g>
                    <g id="Connectors" transform="translate(160.615385, 57.753769)">
                        <circle id="Oval" fill="#FFFFFF" cx="64.0834923" cy="64.0834923" r="64.0834923"></circle>
                        <g id="Group-10" transform="translate(31.597215, 36.638189)" fill="#15232B" fill-rule="nonzero">
                            <path d="M31.0748048,-1.6803247 C41.1710877,-1.6803247 49.7636264,5.29003251 51.9634564,14.8349265 L52.037,15.167 L52.1132283,15.1724002 C60.1427877,15.8033658 66.4883442,22.3918397 66.649731,30.4896979 L66.6528798,30.8059528 C66.6528798,39.3649312 59.7448369,46.3175584 51.1673057,46.4858618 L50.8488659,46.4889834 L38.0873599,46.4889834 C37.1593422,46.4889834 36.4070352,45.7366764 36.4070352,44.8086587 C36.4070352,43.929484 37.0822359,43.2080109 37.942375,43.1345018 L38.0873599,43.128334 L50.8488659,43.128334 C57.723688,43.128334 63.2922304,37.6079909 63.2922304,30.8059528 C63.2922304,24.1054377 57.8886727,18.6486436 51.1558066,18.4872469 L50.919,18.484 L50.8020226,18.498038 L50.6779586,18.5052051 C49.8231523,18.5311083 49.0852496,17.9108551 48.9637757,17.0643276 C47.7039923,8.28514742 40.1056267,1.6803247 31.0748048,1.6803247 C21.0770064,1.6803247 12.978828,9.70752765 12.978828,19.6037882 C12.978828,20.3960992 13.0497063,21.2225201 13.1898121,22.1845806 C13.3374394,23.1982876 12.5514276,24.1070584 11.5270274,24.1070584 C11.4553619,24.1070584 11.3969898,24.1042202 11.3332949,24.0982167 L11.224,24.085 L11.0245295,24.0884426 C5.92781243,24.2295672 1.82648333,28.295828 1.68414575,33.3355922 L1.6803247,33.606494 C1.6803247,38.7706848 5.83679963,42.9809007 11.0245295,43.1245454 L11.2985033,43.128334 L24.6447623,43.128334 C25.57278,43.128334 26.325087,43.880641 26.325087,44.8086587 C26.325087,45.6878333 25.6498862,46.4093064 24.7897471,46.4828156 L24.6447623,46.4889834 L11.2985033,46.4889834 C4.13427019,46.4889834 -1.6803247,40.723766 -1.6803247,33.606494 C-1.6803247,27.1081153 3.16700299,21.7368746 9.46312431,20.8518829 L9.661,20.826 L9.63865822,20.4419824 C9.63185786,20.3009222 9.62673795,20.1607711 9.62331813,20.0211862 L9.61817859,19.6037882 C9.61817859,7.84483762 19.2275612,-1.6803247 31.0748048,-1.6803247 Z" id="Stroke-1363"></path>
                            <path d="M30.1778921,21.2161603 C30.7954993,20.5985532 31.7742658,20.5622233 32.4343624,21.1071708 L32.5542301,21.2161603 L43.7563947,32.418325 C44.4126023,33.0745326 44.4126023,34.1384554 43.7563947,34.794663 C43.1387876,35.4122702 42.160021,35.4486 41.4999245,34.9036525 L41.3800568,34.794663 L31.366,24.78 L21.3520654,34.794663 C20.7344582,35.4122702 19.7556916,35.4486 19.0955951,34.9036525 L18.9757274,34.794663 C18.3581202,34.1770558 18.3217904,33.1982892 18.8667379,32.5381927 L18.9757274,32.418325 L30.1778921,21.2161603 Z" id="Stroke-1364"></path>
                            <path d="M31.3660611,20.7240046 C32.2452357,20.7240046 32.9667088,21.3992054 33.040218,22.2593445 L33.0463858,22.4043293 L33.0463858,54.6594532 C33.0463858,55.5874709 32.2940788,56.3397779 31.3660611,56.3397779 C30.4868864,56.3397779 29.7654133,55.6645771 29.6919042,54.804438 L29.6857364,54.6594532 L29.6857364,22.4043293 C29.6857364,21.4763116 30.4380434,20.7240046 31.3660611,20.7240046 Z" id="Stroke-1365"></path>
                        </g>
                    </g>
                    <g id="Group-3-Copy" transform="translate(313.608600, 153.540394)">
                        <circle id="Oval" fill="#FFFFFF" cx="54.7296907" cy="54.7296907" r="54.7296907"></circle>
                        <g id="drive" transform="translate(22.633832, 26.802126)" fill-rule="nonzero">
                            <polygon id="Path" fill="#0DA960" points="11.1047865 55.2486073 0 36.0217249 20.7870591 0 31.8918456 19.2268824"></polygon>
                            <polygon id="Path" fill="url(#radialGradient-2)" points="11.1047865 55.2486073 22.209573 36.0217249 63.7836911 36.0217249 52.6789046 55.2486073"></polygon>
                            <polygon id="Path" fill="url(#radialGradient-3)" points="63.7836911 36.0217249 41.5741181 36.0217249 20.7870591 0 42.9966321 0"></polygon>
                            <polygon id="Path" fill="#2D6FDD" points="31.8918456 36.0217249 22.209573 36.0217249 27.0277655 27.6243036 11.1047865 55.2486073"></polygon>
                            <polygon id="Path" fill="#E5B93C" points="41.5741181 36.0217249 63.7836911 36.0217249 36.7559256 27.6243036"></polygon>
                            <polygon id="Path" fill="#0C9B57" points="27.0277655 27.6243036 31.8918456 19.2268824 20.7870591 5.68544052e-15"></polygon>
                        </g>
                    </g>
                    <g id="Group-3-Copy-2" transform="translate(0.000000, 71.599923)">
                        <circle id="Oval" fill="#FFFFFF" cx="51.5337963" cy="51.5337963" r="51.5337963"></circle>
                        <g id="Group" transform="translate(14.863552, 14.863552)" fill="#0061FF">
                            <g id="Group" transform="translate(3.550850, 8.522040)">
                                <path d="M33.0354513,34.79833 L49.500506,45.286594 L33.0354513,55.7760416 L16.5706333,45.286594 L33.0354513,34.79833 Z M49.3698348,0 L65.8341793,10.4892109 L49.484,20.905 L65.834416,31.3211009 L49.369598,41.8105486 L32.917,31.329 L16.464818,41.8105486 L0,31.3211009 L16.349,20.905 L0,10.4892109 L16.4650547,0 L32.917,10.481 L49.3698348,0 Z M32.917,10.497 L16.579,20.905 L32.916,31.313 L49.254,20.905 L32.917,10.497 Z" id="Combined-Shape"></path>
                            </g>
                        </g>
                    </g>
                    <g id="Group-3-Copy-3" transform="translate(313.846154, 0.523000)">
                        <circle id="Oval" fill="#FFFFFF" cx="35.1548378" cy="35.1548378" r="35.1548378"></circle>
                        <g id="aws-logo" transform="translate(15.140137, 19.389582)" fill="#F7A80D" fill-rule="nonzero">
                            <path d="M11.6938464,20.0803739 L8.02865434,21.6547656 L11.4230593,23.1063832 L15.3590384,21.6547656 L11.6938464,20.0803739 Z M6.18343875,22.0483635 L6.06062796,29.133126 L11.4230225,31.4947135 L11.4230225,24.1392006 L6.18343875,22.0483635 L6.18343875,22.0483635 Z M17.2042172,22.0483635 L12.3581946,23.8935423 L12.3581946,30.8303653 L17.2042172,28.8623757 L17.2042172,22.0483635 Z M22.9853752,0.00684326162 L19.2949808,1.58127173 L22.7145513,3.03285261 L26.6505305,1.58127173 L22.9853752,0.00684326162 L22.9853752,0.00684326162 Z M17.8686023,2.09845306 L17.8686023,9.18321559 L22.443801,10.5119857 L22.5917773,4.06640586 L17.8686023,2.09845306 L17.8686023,2.09845306 Z M28.1022218,2.49201419 L23.7726079,4.33722978 L23.7726079,11.2992183 L28.1022218,9.33122872 L28.1022218,2.49201419 L28.1022218,2.49201419 Z M5.65444727,9.97828486 L1.98925521,11.5526765 L5.38366014,13.0042942 L9.31963932,11.5526765 L5.65444727,9.97828486 L5.65444727,9.97828486 Z M0.144076411,11.9462744 L0.0212656194,19.0310738 L5.38366014,21.3926613 L5.38366014,14.0370748 L0.144076411,11.9462744 Z M11.1648549,11.9462744 L6.3188691,13.7914532 L6.3188691,20.7282394 L11.1648549,18.7602498 L11.1648549,11.9462744 Z M17.4624216,9.71691641 L13.7972295,11.2913081 L17.1916345,12.7429258 L21.1276137,11.2913081 L17.4624216,9.71691641 Z M11.952014,11.6849428 L11.8292032,18.7697053 L17.1915977,21.1312928 L17.1915977,13.7765158 L11.952014,11.6849428 Z M22.9727925,11.6849428 L18.1268066,13.5301216 L18.1268066,20.4669078 L22.9727925,18.4989182 L22.9727925,11.6849428 Z M34.5186257,0.00684326162 L30.8534705,1.58123493 L34.2478754,3.03281582 L38.1838178,1.58123493 L34.5186257,0.00684326162 Z M29.0082181,1.97483285 L28.8854441,9.05959538 L34.2478386,11.4211829 L34.2478386,4.06640586 L29.0082181,1.97483285 Z M40.0289966,1.97483285 L35.1830108,3.82001165 L35.1830108,10.7567978 L40.0289966,8.78880825 L40.0289966,1.97483285 Z" id="Shape"></path>
                        </g>
                    </g>
                </g>
            </g>
        </g>
    </g>
</svg>